# xmcd
#
# Track frame offsets: 
#        150
#        21966
#        44204
#        60684
#        82223
#        103436
#        125886
#        142275
#        159683
#        180298
#        200701
#        214080
#        233831
#        258880
#        271051
#        281969
#        295677
#        315309
#
# Disc length: 4421 seconds
#
# Revision: 0
# Processed by: cddbd v1.5.2PL0 Copyright (c) Steve Scherf et al.
# Submitted via: ExactAudioCopy v0.95a5
#
DISCID=24114312
DTITLE=郑智化 - 精选
DYEAR=2004
DGENRE=流行
TTITLE0=水手
TTITLE1=星星点灯
TTITLE2=年轻时代
TTITLE3=你的生日
TTITLE4=堕落天使
TTITLE5=单身逃亡
TTITLE6=麻花辫子
TTITLE7=蜗牛的家
TTITLE8=大国民
TTITLE9=游戏人间
TTITLE10=未婚爸爸
TTITLE11=夜未眠
TTITLE12=落泪的戏子
TTITLE13=三十三块
TTITLE14=大同世界
TTITLE15=中产阶级
TTITLE16=我是风筝
TTITLE17=等待一世人
EXTD=
EXTT0=
EXTT1=
EXTT2=
EXTT3=
EXTT4=
EXTT5=
EXTT6=
EXTT7=
EXTT8=
EXTT9=
EXTT10=
EXTT11=
EXTT12=
EXTT13=
EXTT14=
EXTT15=
EXTT16=
EXTT17=
PLAYORDER=
